<svg xmlns="http://www.w3.org/2000/svg" xmlns:xlink="http://www.w3.org/1999/xlink" viewBox="0 0 200 200"><defs><style>.cls-1{fill:none;}.cls-2{clip-path:url(#clip-path);}.cls-3{fill:#da603f;}.cls-4{fill:#4f5377;}.cls-5{fill:#363850;}.cls-6{fill:#262839;}.cls-7{clip-path:url(#clip-path-2);}.cls-8{fill:#d9603f;}.cls-9{fill:#d86040;}.cls-10{fill:#d76040;}.cls-11{fill:#d66041;}.cls-12{fill:#d56041;}.cls-13{fill:#d45f41;}.cls-14{fill:#d35f42;}.cls-15{fill:#d25f42;}.cls-16{fill:#d15f43;}.cls-17{fill:#d05f43;}.cls-18{fill:#cf5f43;}.cls-19{fill:#ce5f44;}.cls-20{fill:#cd5f44;}.cls-21{fill:#cc5f45;}.cls-22{fill:#cb5f45;}.cls-23{fill:#ca5f45;}.cls-24{fill:#c95e46;}.cls-25{fill:#c85e46;}.cls-26{fill:#c75e47;}.cls-27{fill:#c65e47;}.cls-28{fill:#c55e47;}.cls-29{fill:#c45e48;}.cls-30{fill:#c35e48;}.cls-31{fill:#c25e49;}.cls-32{fill:#c15e49;}.cls-33{fill:#c05e49;}.cls-34{fill:#bf5d4a;}.cls-35{fill:#be5d4a;}.cls-36{fill:#bd5d4b;}.cls-37{fill:#bc5d4b;}.cls-38{fill:#bb5d4b;}.cls-39{fill:#ba5d4c;}.cls-40{fill:#b95d4c;}.cls-41{fill:#b85d4d;}.cls-42{fill:#b75d4d;}.cls-43{fill:#b65d4e;}.cls-44{fill:#b55d4e;}.cls-45{fill:#b45c4e;}.cls-46{fill:#b35c4f;}.cls-47{fill:#b25c4f;}.cls-48{fill:#b15c50;}.cls-49{fill:#b05c50;}.cls-50{fill:#af5c50;}.cls-51{fill:#ae5c51;}.cls-52{fill:#ad5c51;}.cls-53{fill:#ac5c52;}.cls-54{fill:#ab5c52;}.cls-55{fill:#aa5c52;}.cls-56{fill:#a95b53;}.cls-57{fill:#a85b53;}.cls-58{fill:#a75b54;}.cls-59{fill:#a65b54;}.cls-60{fill:#a55b54;}.cls-61{fill:#a45b55;}.cls-62{fill:#a35b55;}.cls-63{fill:#a25b56;}.cls-64{fill:#a15b56;}.cls-65{fill:#a05b56;}.cls-66{fill:#9f5a57;}.cls-67{fill:#9e5a57;}.cls-68{fill:#9d5a58;}.cls-69{fill:#9c5a58;}.cls-70{fill:#9b5a58;}.cls-71{fill:#9a5a59;}.cls-72{fill:#995a59;}.cls-73{fill:#985a5a;}.cls-74{fill:#975a5a;}.cls-75{fill:#965a5a;}.cls-76{fill:#955a5b;}.cls-77{fill:#94595b;}.cls-78{fill:#93595c;}.cls-79{fill:#92595c;}.cls-80{fill:#91595c;}.cls-81{fill:#90595d;}.cls-82{fill:#8f595d;}.cls-83{fill:#8e595e;}.cls-84{fill:#8d595e;}.cls-85{fill:#8c595e;}.cls-86{fill:#8b595f;}.cls-87{fill:#8a595f;}.cls-88{fill:#895860;}.cls-89{fill:#885860;}.cls-90{fill:#875860;}.cls-91{fill:#865861;}.cls-92{fill:#855861;}.cls-93{fill:#845862;}.cls-94{fill:#835862;}.cls-95{fill:#825862;}.cls-96{fill:#815863;}.cls-97{fill:#805863;}.cls-98{fill:#7f5764;}.cls-99{fill:#7e5764;}.cls-100{fill:#7d5764;}.cls-101{fill:#7c5765;}.cls-102{fill:#7b5765;}.cls-103{fill:#7a5766;}.cls-104{fill:#795766;}.cls-105{fill:#785766;}.cls-106{fill:#775767;}.cls-107{fill:#765767;}.cls-108{fill:#755768;}.cls-109{fill:#745668;}.cls-110{fill:#735668;}.cls-111{fill:#725669;}.cls-112{fill:#715669;}.cls-113{fill:#70566a;}.cls-114{fill:#6f566a;}.cls-115{fill:#6e566b;}.cls-116{fill:#6d566b;}.cls-117{fill:#6c566b;}.cls-118{fill:#6b566c;}.cls-119{fill:#6a566c;}.cls-120{fill:#69556d;}.cls-121{fill:#68556d;}.cls-122{fill:#67556d;}.cls-123{fill:#66556e;}.cls-124{fill:#65556e;}.cls-125{fill:#64556f;}.cls-126{fill:#63556f;}.cls-127{fill:#62556f;}.cls-128{fill:#615570;}.cls-129{fill:#605570;}.cls-130{fill:#5f5471;}.cls-131{fill:#5e5471;}.cls-132{fill:#5d5471;}.cls-133{fill:#5c5472;}.cls-134{fill:#5b5472;}.cls-135{fill:#5a5473;}.cls-136{fill:#595473;}.cls-137{fill:#585473;}.cls-138{fill:#575474;}.cls-139{fill:#565474;}.cls-140{fill:#555475;}.cls-141{fill:#545375;}.cls-142{fill:#535375;}.cls-143{fill:#525376;}.cls-144{fill:#515376;}.cls-145{fill:#505377;}.cls-146{fill:#4e5276;}.cls-147{fill:#4e5275;}.cls-148{fill:#4d5174;}.cls-149{fill:#4c5073;}.cls-150{fill:#4c5072;}.cls-151{fill:#4b4f71;}.cls-152{fill:#4b4e70;}.cls-153{fill:#4a4e6f;}.cls-154{fill:#494d6e;}.cls-155{fill:#494c6d;}.cls-156{fill:#484c6c;}.cls-157{fill:#474b6b;}.cls-158{fill:#474a6a;}.cls-159{fill:#464a69;}.cls-160{fill:#464968;}.cls-161{fill:#454867;}.cls-162{fill:#444866;}.cls-163{fill:#444765;}.cls-164{fill:#434664;}.cls-165{fill:#424563;}.cls-166{fill:#414462;}.cls-167{fill:#414361;}.cls-168{fill:#404360;}.cls-169{fill:#3f425f;}.cls-170{fill:#3f415e;}.cls-171{fill:#3e415d;}.cls-172{fill:#3e405c;}.cls-173{fill:#3d3f5b;}.cls-174{fill:#3c3f5a;}.cls-175{fill:#3c3e59;}.cls-176{fill:#3b3d58;}.cls-177{fill:#3a3d57;}.cls-178{fill:#3a3c56;}.cls-179{fill:#393b55;}.cls-180{fill:#393b54;}.cls-181{fill:#383a53;}.cls-182{fill:#373952;}.cls-183{fill:#373951;}.cls-184{fill:#35374f;}.cls-185{fill:#35374e;}.cls-186{fill:#34364d;}.cls-187{fill:#33354c;}.cls-188{fill:#33354b;}.cls-189{fill:#32344a;}.cls-190{fill:#313349;}.cls-191{fill:#313348;}.cls-192{fill:#303247;}.cls-193{fill:#2f3146;}.cls-194{fill:#2f3145;}.cls-195{fill:#2e3044;}.cls-196{fill:#2d2f44;}.cls-197{fill:#2d2f43;}.cls-198{fill:#2c2e42;}.cls-199{fill:#2b2d41;}.cls-200{fill:#2b2d40;}.cls-201{fill:#2a2c3f;}.cls-202{fill:#292b3e;}.cls-203{fill:#292b3d;}.cls-204{fill:#282a3c;}.cls-205{fill:#27293b;}.cls-206{fill:#27293a;}</style><clipPath id="clip-path" transform="translate(-150 -150)"><rect class="cls-1" x="164.64" y="185.36" width="100" height="200" transform="translate(-138.91 235.36) rotate(-45)"/></clipPath><clipPath id="clip-path-2" transform="translate(-150 -150)"><rect class="cls-1" x="235.36" y="114.64" width="100" height="200" transform="translate(638.91 164.64) rotate(135)"/></clipPath></defs><g id="Layer_1" data-name="Layer 1"><g class="cls-2"><circle class="cls-3" cx="100" cy="100" r="100"/><circle class="cls-4" cx="100" cy="100" r="75"/><circle class="cls-5" cx="100" cy="100" r="50"/><circle class="cls-6" cx="100" cy="100" r="25"/></g></g><g id="Layer_3" data-name="Layer 3"><g class="cls-7"><circle class="cls-3" cx="100" cy="100" r="100"/><circle class="cls-8" cx="100" cy="100" r="99.82"/><circle class="cls-9" cx="100" cy="100" r="99.64"/><circle class="cls-10" cx="100" cy="100" r="99.46"/><circle class="cls-11" cx="100" cy="100" r="99.28"/><circle class="cls-12" cx="100" cy="100" r="99.1"/><circle class="cls-13" cx="100" cy="100" r="98.92"/><circle class="cls-14" cx="100" cy="100" r="98.74"/><circle class="cls-15" cx="100" cy="100" r="98.56"/><circle class="cls-16" cx="100" cy="100" r="98.38"/><circle class="cls-17" cx="100" cy="100" r="98.2"/><circle class="cls-18" cx="100" cy="100" r="98.02"/><circle class="cls-19" cx="100" cy="100" r="97.84"/><circle class="cls-20" cx="100" cy="100" r="97.66"/><circle class="cls-21" cx="100" cy="100" r="97.48"/><circle class="cls-22" cx="100" cy="100" r="97.3"/><circle class="cls-23" cx="100" cy="100" r="97.12"/><circle class="cls-24" cx="100" cy="100" r="96.94"/><circle class="cls-25" cx="100" cy="100" r="96.76"/><circle class="cls-26" cx="100" cy="100" r="96.58"/><circle class="cls-27" cx="100" cy="100" r="96.4"/><circle class="cls-28" cx="100" cy="100" r="96.22"/><circle class="cls-29" cx="100" cy="100" r="96.04"/><circle class="cls-30" cx="100" cy="100" r="95.86"/><circle class="cls-31" cx="100" cy="100" r="95.68"/><circle class="cls-32" cx="100" cy="100" r="95.5"/><circle class="cls-33" cx="100" cy="100" r="95.32"/><circle class="cls-34" cx="100" cy="100" r="95.14"/><circle class="cls-35" cx="100" cy="100" r="94.96"/><circle class="cls-36" cx="100" cy="100" r="94.78"/><circle class="cls-37" cx="100" cy="100" r="94.6"/><circle class="cls-38" cx="100" cy="100" r="94.42"/><circle class="cls-39" cx="100" cy="100" r="94.24"/><circle class="cls-40" cx="100" cy="100" r="94.06"/><circle class="cls-41" cx="100" cy="100" r="93.88"/><circle class="cls-42" cx="100" cy="100" r="93.71"/><circle class="cls-43" cx="100" cy="100" r="93.53"/><circle class="cls-44" cx="100" cy="100" r="93.35"/><circle class="cls-45" cx="100" cy="100" r="93.17"/><circle class="cls-46" cx="100" cy="100" r="92.99"/><circle class="cls-47" cx="100" cy="100" r="92.81"/><circle class="cls-48" cx="100" cy="100" r="92.63"/><circle class="cls-49" cx="100" cy="100" r="92.45"/><circle class="cls-50" cx="100" cy="100" r="92.27"/><circle class="cls-51" cx="100" cy="100" r="92.09"/><circle class="cls-52" cx="100" cy="100" r="91.91"/><circle class="cls-53" cx="100" cy="100" r="91.73"/><circle class="cls-54" cx="100" cy="100" r="91.55"/><circle class="cls-55" cx="100" cy="100" r="91.37"/><circle class="cls-56" cx="100" cy="100" r="91.19"/><circle class="cls-57" cx="100" cy="100" r="91.01"/><circle class="cls-58" cx="100" cy="100" r="90.83"/><circle class="cls-59" cx="100" cy="100" r="90.65"/><circle class="cls-60" cx="100" cy="100" r="90.47"/><circle class="cls-61" cx="100" cy="100" r="90.29"/><circle class="cls-62" cx="100" cy="100" r="90.11"/><circle class="cls-63" cx="100" cy="100" r="89.93"/><circle class="cls-64" cx="100" cy="100" r="89.75"/><circle class="cls-65" cx="100" cy="100" r="89.57"/><circle class="cls-66" cx="100" cy="100" r="89.39"/><circle class="cls-67" cx="100" cy="100" r="89.21"/><circle class="cls-68" cx="100" cy="100" r="89.03"/><circle class="cls-69" cx="100" cy="100" r="88.85"/><circle class="cls-70" cx="100" cy="100" r="88.67"/><circle class="cls-71" cx="100" cy="100" r="88.49"/><circle class="cls-72" cx="100" cy="100" r="88.31"/><circle class="cls-73" cx="100" cy="100" r="88.13"/><circle class="cls-74" cx="100" cy="100" r="87.95"/><circle class="cls-75" cx="100" cy="100" r="87.77"/><circle class="cls-76" cx="100" cy="100" r="87.59"/><circle class="cls-77" cx="100" cy="100" r="87.41"/><circle class="cls-78" cx="100" cy="100" r="87.23"/><circle class="cls-79" cx="100" cy="100" r="87.05"/><circle class="cls-80" cx="100" cy="100" r="86.87"/><circle class="cls-81" cx="100" cy="100" r="86.69"/><circle class="cls-82" cx="100" cy="100" r="86.51"/><circle class="cls-83" cx="100" cy="100" r="86.33"/><circle class="cls-84" cx="100" cy="100" r="86.15"/><circle class="cls-85" cx="100" cy="100" r="85.97"/><circle class="cls-86" cx="100" cy="100" r="85.79"/><circle class="cls-87" cx="100" cy="100" r="85.61"/><circle class="cls-88" cx="100" cy="100" r="85.43"/><circle class="cls-89" cx="100" cy="100" r="85.25"/><circle class="cls-90" cx="100" cy="100" r="85.07"/><circle class="cls-91" cx="100" cy="100" r="84.89"/><circle class="cls-92" cx="100" cy="100" r="84.71"/><circle class="cls-93" cx="100" cy="100" r="84.53"/><circle class="cls-94" cx="100" cy="100" r="84.35"/><circle class="cls-95" cx="100" cy="100" r="84.17"/><circle class="cls-96" cx="100" cy="100" r="83.99"/><circle class="cls-97" cx="100" cy="100" r="83.81"/><circle class="cls-98" cx="100" cy="100" r="83.63"/><circle class="cls-99" cx="100" cy="100" r="83.45"/><circle class="cls-100" cx="100" cy="100" r="83.27"/><circle class="cls-101" cx="100" cy="100" r="83.09"/><circle class="cls-102" cx="100" cy="100" r="82.91"/><circle class="cls-103" cx="100" cy="100" r="82.73"/><circle class="cls-104" cx="100" cy="100" r="82.55"/><circle class="cls-105" cx="100" cy="100" r="82.37"/><circle class="cls-106" cx="100" cy="100" r="82.19"/><circle class="cls-107" cx="100" cy="100" r="82.01"/><circle class="cls-108" cx="100" cy="100" r="81.83"/><circle class="cls-109" cx="100" cy="100" r="81.65"/><circle class="cls-110" cx="100" cy="100" r="81.47"/><circle class="cls-111" cx="100" cy="100" r="81.29"/><circle class="cls-112" cx="100" cy="100" r="81.12"/><circle class="cls-113" cx="100" cy="100" r="80.94"/><circle class="cls-114" cx="100" cy="100" r="80.76"/><circle class="cls-115" cx="100" cy="100" r="80.58"/><circle class="cls-116" cx="100" cy="100" r="80.4"/><circle class="cls-117" cx="100" cy="100" r="80.22"/><circle class="cls-118" cx="100" cy="100" r="80.04"/><circle class="cls-119" cx="100" cy="100" r="79.86"/><circle class="cls-120" cx="100" cy="100" r="79.68"/><circle class="cls-121" cx="100" cy="100" r="79.5"/><circle class="cls-122" cx="100" cy="100" r="79.32"/><circle class="cls-123" cx="100" cy="100" r="79.14"/><circle class="cls-124" cx="100" cy="100" r="78.96"/><circle class="cls-125" cx="100" cy="100" r="78.78"/><circle class="cls-126" cx="100" cy="100" r="78.6"/><circle class="cls-127" cx="100" cy="100" r="78.42"/><circle class="cls-128" cx="100" cy="100" r="78.24"/><circle class="cls-129" cx="100" cy="100" r="78.06"/><circle class="cls-130" cx="100" cy="100" r="77.88"/><circle class="cls-131" cx="100" cy="100" r="77.7"/><circle class="cls-132" cx="100" cy="100" r="77.52"/><circle class="cls-133" cx="100" cy="100" r="77.34"/><circle class="cls-134" cx="100" cy="100" r="77.16"/><circle class="cls-135" cx="100" cy="100" r="76.98"/><circle class="cls-136" cx="100" cy="100" r="76.8"/><circle class="cls-137" cx="100" cy="100" r="76.62"/><circle class="cls-138" cx="100" cy="100" r="76.44"/><circle class="cls-139" cx="100" cy="100" r="76.26"/><circle class="cls-140" cx="100" cy="100" r="76.08"/><circle class="cls-141" cx="100" cy="100" r="75.9"/><circle class="cls-142" cx="100" cy="100" r="75.72"/><circle class="cls-143" cx="100" cy="100" r="75.54"/><circle class="cls-144" cx="100" cy="100" r="75.36"/><circle class="cls-145" cx="100" cy="100" r="75.18"/><circle class="cls-4" cx="100" cy="100" r="75"/><circle class="cls-146" cx="100" cy="100" r="74.37"/><circle class="cls-147" cx="100" cy="100" r="73.75"/><circle class="cls-148" cx="100" cy="100" r="73.12"/><circle class="cls-149" cx="100" cy="100" r="72.5"/><circle class="cls-150" cx="100" cy="100" r="71.87"/><circle class="cls-151" cx="100" cy="100" r="71.25"/><circle class="cls-152" cx="100" cy="100" r="70.62"/><circle class="cls-153" cx="100" cy="100" r="70"/><circle class="cls-154" cx="100" cy="100" r="69.37"/><circle class="cls-155" cx="100" cy="100" r="68.75"/><circle class="cls-156" cx="100" cy="100" r="68.12"/><circle class="cls-157" cx="100" cy="100" r="67.5"/><circle class="cls-158" cx="100" cy="100" r="66.87"/><circle class="cls-159" cx="100" cy="100" r="66.25"/><circle class="cls-160" cx="100" cy="100" r="65.62"/><circle class="cls-161" cx="100" cy="100" r="65"/><circle class="cls-162" cx="100" cy="100" r="64.37"/><circle class="cls-163" cx="100" cy="100" r="63.75"/><circle class="cls-164" cx="100" cy="100" r="63.12"/><circle class="cls-164" cx="100" cy="100" r="62.5"/><circle class="cls-165" cx="100" cy="100" r="61.88"/><circle class="cls-166" cx="100" cy="100" r="61.25"/><circle class="cls-167" cx="100" cy="100" r="60.63"/><circle class="cls-168" cx="100" cy="100" r="60"/><circle class="cls-169" cx="100" cy="100" r="59.38"/><circle class="cls-170" cx="100" cy="100" r="58.75"/><circle class="cls-171" cx="100" cy="100" r="58.13"/><circle class="cls-172" cx="100" cy="100" r="57.5"/><circle class="cls-173" cx="100" cy="100" r="56.88"/><circle class="cls-174" cx="100" cy="100" r="56.25"/><circle class="cls-175" cx="100" cy="100" r="55.63"/><circle class="cls-176" cx="100" cy="100" r="55"/><circle class="cls-177" cx="100" cy="100" r="54.38"/><circle class="cls-178" cx="100" cy="100" r="53.75"/><circle class="cls-179" cx="100" cy="100" r="53.13"/><circle class="cls-180" cx="100" cy="100" r="52.5"/><circle class="cls-181" cx="100" cy="100" r="51.88"/><circle class="cls-182" cx="100" cy="100" r="51.25"/><circle class="cls-183" cx="100" cy="100" r="50.63"/><circle class="cls-5" cx="100" cy="100" r="50"/><circle class="cls-184" cx="100" cy="100" r="48.96"/><circle class="cls-185" cx="100" cy="100" r="47.92"/><circle class="cls-186" cx="100" cy="100" r="46.87"/><circle class="cls-187" cx="100" cy="100" r="45.83"/><circle class="cls-188" cx="100" cy="100" r="44.79"/><circle class="cls-189" cx="100" cy="100" r="43.75"/><circle class="cls-190" cx="100" cy="100" r="42.71"/><circle class="cls-191" cx="100" cy="100" r="41.67"/><circle class="cls-192" cx="100" cy="100" r="40.62"/><circle class="cls-193" cx="100" cy="100" r="39.58"/><circle class="cls-194" cx="100" cy="100" r="38.54"/><circle class="cls-195" cx="100" cy="100" r="37.5"/><circle class="cls-196" cx="100" cy="100" r="36.46"/><circle class="cls-197" cx="100" cy="100" r="35.42"/><circle class="cls-198" cx="100" cy="100" r="34.38"/><circle class="cls-199" cx="100" cy="100" r="33.33"/><circle class="cls-200" cx="100" cy="100" r="32.29"/><circle class="cls-201" cx="100" cy="100" r="31.25"/><circle class="cls-202" cx="100" cy="100" r="30.21"/><circle class="cls-203" cx="100" cy="100" r="29.17"/><circle class="cls-204" cx="100" cy="100" r="28.13"/><circle class="cls-205" cx="100" cy="100" r="27.08"/><circle class="cls-206" cx="100" cy="100" r="26.04"/><circle class="cls-6" cx="100" cy="100" r="25"/></g></g></svg>